<svg xmlns="http://www.w3.org/2000/svg" width="73.291" height="73.291" viewBox="0 0 73.291 73.291"><defs><style>.a{fill:#7ecb20;}</style></defs><path class="a" d="M73.854,37.208A36.646,36.646,0,1,1,37.208.562,36.646,36.646,0,0,1,73.854,37.208Zm-40.884,19.4L60.158,29.423a2.364,2.364,0,0,0,0-3.343l-3.343-3.343a2.364,2.364,0,0,0-3.344,0L31.3,44.909,20.945,34.557a2.364,2.364,0,0,0-3.344,0L14.258,37.9a2.364,2.364,0,0,0,0,3.343L29.626,56.612a2.364,2.364,0,0,0,3.344,0Z" transform="translate(-0.563 -0.563)"/></svg>